<?xml version="1.0" standalone="no"?><!DOCTYPE svg PUBLIC "-//W3C//DTD SVG 1.1//EN" "http://www.w3.org/Graphics/SVG/1.1/DTD/svg11.dtd"><svg t="1709882276649" class="icon" viewBox="0 0 1024 1024" version="1.1" xmlns="http://www.w3.org/2000/svg" p-id="2296" xmlns:xlink="http://www.w3.org/1999/xlink" width="200" height="200"><path d="M512 0C229.831111 0 0 229.831111 0 512S229.831111 1024 512 1024 1024 794.168889 1024 512 794.168889 0 512 0z m0 955.733333C266.24 955.733333 68.266667 757.76 68.266667 512S266.24 68.266667 512 68.266667 955.733333 266.24 955.733333 512 757.76 955.733333 512 955.733333z" fill="#212121" p-id="2297"></path><path d="M750.933333 477.866667h-204.8v-204.8c0-18.204444-15.928889-34.133333-34.133333-34.133334S477.866667 254.862222 477.866667 273.066667v204.8h-204.8c-18.204444 0-34.133333 15.928889-34.133334 34.133333S254.862222 546.133333 273.066667 546.133333h204.8v204.8c0 18.204444 15.928889 34.133333 34.133333 34.133334S546.133333 769.137778 546.133333 750.933333v-204.8h204.8c18.204444 0 34.133333-15.928889 34.133334-34.133333S769.137778 477.866667 750.933333 477.866667z" fill="#212121" p-id="2298"></path></svg>