<?xml version="1.0" standalone="no"?><!DOCTYPE svg PUBLIC "-//W3C//DTD SVG 1.1//EN" "http://www.w3.org/Graphics/SVG/1.1/DTD/svg11.dtd"><svg t="1709798599629" class="icon" viewBox="0 0 1024 1024" version="1.1" xmlns="http://www.w3.org/2000/svg" p-id="13323" xmlns:xlink="http://www.w3.org/1999/xlink" width="200" height="200"><path d="M311.467 64c4.693 0 8.533 3.84 8.533 8.533v46.934a8.533 8.533 0 0 1-8.533 8.533h-76.8a106.667 106.667 0 0 0-106.56 102.037l-0.107 4.63v554.666a106.667 106.667 0 0 0 102.037 106.56l4.63 0.107h554.666a106.667 106.667 0 0 0 106.56-102.037l0.107-4.63V234.667a106.667 106.667 0 0 0-102.037-106.56l-4.63-0.107h-55.466a8.533 8.533 0 0 1-8.534-8.533V72.533c0-4.693 3.84-8.533 8.534-8.533h55.466A170.667 170.667 0 0 1 960 234.667v554.666A170.667 170.667 0 0 1 789.333 960H234.667A170.667 170.667 0 0 1 64 789.333V234.667A170.667 170.667 0 0 1 234.667 64h76.8z m212.138 0l2.518 0.299a21.277 21.277 0 0 1 11.306 5.909l185.387 185.387a8.533 8.533 0 0 1 2.517 6.058v66.368a8.533 8.533 0 0 1-14.57 6.038L554.667 177.963V632.96a8.533 8.533 0 0 1-8.534 8.533H499.2a8.533 8.533 0 0 1-8.533-8.533V177.323L334.57 333.419A8.533 8.533 0 0 1 320 327.38v-66.346a8.533 8.533 0 0 1 2.496-6.038L507.264 70.208A21.248 21.248 0 0 1 521.088 64h2.517z" fill="#333333" p-id="13324"></path></svg>